<svg height="504pt" viewBox="0 -10 504 504" width="504pt" xmlns="http://www.w3.org/2000/svg"><path d="m500 334.574219c0 105.5625-111.035156 145.59375-248 145.59375s-248-40.03125-248-145.59375 111.035156-236.6875 248-236.6875 248 131.125 248 236.6875zm0 0" fill="#f4efed"/><path d="m252 97.886719c-3.351562 0-6.683594.101562-10 .253906 132.328125 6.167969 238 133.453125 238 236.433594s-105.671875 143.589843-238 145.515625c3.316406.046875 6.648438.082031 10 .082031 136.964844 0 248-40.03125 248-145.59375 0-105.566406-111.035156-236.691406-248-236.691406zm0 0" fill="#d6d1cf"/><path d="m252 97.886719c3.351562 0 6.683594.101562 10 .253906-132.328125 6.167969-238 133.453125-238 236.433594s105.671875 143.589843 238 145.515625c-3.316406.046875-6.648438.082031-10 .082031-136.964844 0-248-40.03125-248-145.59375 0-105.566406 111.035156-236.691406 248-236.691406zm0 0" fill="#fff"/><path d="m252 484.167969c-73.335938 0-134.613281-11.636719-177.199219-33.65625-49.636719-25.664063-74.800781-64.667969-74.800781-115.9375 0-53.316407 27.578125-113.398438 73.777344-160.722657 50.332031-51.566406 113.625-79.964843 178.222656-79.964843s127.890625 28.398437 178.222656 79.960937c46.199219 47.328125 73.777344 107.410156 73.777344 160.726563 0 51.269531-25.164062 90.277343-74.800781 115.9375-42.585938 22.019531-103.863281 33.65625-177.199219 33.65625zm0-382.28125c-62.421875 0-123.683594 27.542969-172.5 77.550781-44.773438 45.863281-71.5 103.859375-71.5 155.136719 0 48.039062 23.710938 84.652343 70.472656 108.832031 41.460938 21.433594 101.464844 32.765625 173.527344 32.765625s132.066406-11.332031 173.527344-32.765625c46.761718-24.179688 70.472656-60.796875 70.472656-108.832031 0-51.277344-26.726562-109.269531-71.5-155.136719-48.816406-50.007812-110.078125-77.550781-172.5-77.550781zm0 0" fill="#690589"/><path d="m66.835938 215.820312c-.847657 0-1.703126-.269531-2.425782-.820312-1.757812-1.339844-2.09375-3.851562-.753906-5.609375 6.464844-8.464844 13.554688-16.664063 21.074219-24.363281 1.546875-1.582032 4.082031-1.613282 5.65625-.070313 1.582031 1.542969 1.613281 4.078125.070312 5.65625-7.296875 7.472657-14.171875 15.421875-20.4375 23.636719-.792969 1.027344-1.980469 1.570312-3.183593 1.570312zm0 0" fill="#690589"/><path d="m336.386719 79.9375c-8.160157-.859375-12.332031-10.230469-7.507813-16.867188 4.113282-5.660156 1.777344-13.757812-4.773437-16.210937-6.769531-2.53125-14.984375-2.226563-24.78125 2.132813-6.554688 2.917968-13.503907 7.519531-19.820313 12.984374 4.148438-10.289062 6.605469-21.75 6.605469-31.351562 0-10.71875-3.058594-18.347656-8.128906-23.503906-4.90625-4.988282-13.25-3.832032-16.75 2.230468-4.101563 7.105469-14.359375 7.105469-18.460938 0-3.496093-6.0625-11.84375-7.21875-16.75-2.230468-5.070312 5.15625-8.128906 12.785156-8.128906 23.503906 0 9.601562 2.457031 21.0625 6.605469 31.351562-6.316406-5.464843-13.265625-10.066406-19.820313-12.984374-9.796875-4.359376-18.011719-4.664063-24.78125-2.132813-6.550781 2.453125-8.886719 10.550781-4.773437 16.210937 4.824218 6.636719.652344 16.007813-7.507813 16.867188-6.960937.730469-11.410156 7.886719-8.84375 14.398438 2.644531 6.722656 8.371094 12.621093 18.167969 16.980468 6.546875 2.914063 14.601562 4.992188 22.875 6.027344-6.488281 5.4375-12.210938 11.671875-16.167969 17.773438-5.832031 9-7.410156 17.0625-5.960937 24.148437 1.40625 6.855469 9.039062 10.421875 15.269531 7.238281 7.308594-3.730468 15.914063 1.847656 15.492187 10.039063-.359374 6.988281 6.015626 12.5 12.847657 10.980469 7.054687-1.570313 13.769531-6.308594 19.601562-15.308594 4.90625-7.570313 8.886719-17.699219 11.105469-27.933594 2.21875 10.234375 6.199219 20.363281 11.105469 27.933594 5.832031 9 12.546875 13.738281 19.601562 15.308594 6.832031 1.519531 13.207031-3.992188 12.847657-10.980469-.421876-8.191407 8.183593-13.769531 15.492187-10.039063 6.230469 3.183594 13.863281-.382812 15.269531-7.238281 1.449219-7.082031-.128906-15.148437-5.960937-24.148437-3.957031-6.101563-9.679688-12.335938-16.167969-17.773438 8.273438-1.035156 16.328125-3.113281 22.875-6.027344 9.796875-4.359375 15.519531-10.257812 18.167969-16.980468 2.566406-6.511719-1.882813-13.667969-8.84375-14.398438zm0 0" fill="#ff4397"/><path d="m285.011719 191.777344c-1.054688 0-2.117188-.113282-3.171875-.347656-8.570313-1.910157-16-7.640626-22.089844-17.039063-2.929688-4.515625-5.582031-9.976563-7.75-15.851563-2.167969 5.875-4.820312 11.332032-7.75 15.851563-6.089844 9.398437-13.519531 15.128906-22.089844 17.039063-4.453125.992187-9.011718-.140626-12.511718-3.097657-3.539063-2.992187-5.4375-7.367187-5.199219-11.992187.121093-2.402344-1.007813-4.621094-3.027344-5.929688-2.023437-1.308594-4.511719-1.4375-6.652344-.339844-4.125 2.105469-8.890625 2.160157-13.070312.152344-4.128907-1.984375-7.023438-5.6875-7.9375-10.152344-1.757813-8.601562.4375-17.726562 6.523437-27.125 2.835938-4.375 6.488282-8.789062 10.75-13.011718-5.738281-1.210938-11.074218-2.890625-15.726562-4.960938-10.230469-4.550781-17.046875-11-20.265625-19.167968-1.671875-4.242188-1.265625-8.921876 1.109375-12.839844 2.410156-3.964844 6.433594-6.519532 11.039062-7.003906 2.394532-.25 4.410156-1.710938 5.386719-3.914063.976563-2.199219.71875-4.671875-.699219-6.621094-2.722656-3.746093-3.519531-8.445312-2.183594-12.886719 1.320313-4.386718 4.523438-7.820312 8.792969-9.417968 8.222657-3.078125 17.578125-2.332032 27.808594 2.222656 3.414063 1.519531 6.917969 3.453125 10.414063 5.738281-1.828126-7.082031-2.824219-14.15625-2.824219-20.449219 0-11.195312 3.125-20.046874 9.277343-26.308593 3.195313-3.25 7.636719-4.785157 12.183594-4.203125 4.601563.585937 8.566406 3.222656 10.882813 7.234375 1.207031 2.085937 3.363281 3.332031 5.765625 3.332031 2.40625 0 4.5625-1.246094 5.769531-3.332031 2.3125-4.011719 6.28125-6.648438 10.882813-7.234375 4.542968-.578125 8.984374.953125 12.183593 4.203125 6.152344 6.261719 9.277344 15.113281 9.277344 26.308593 0 6.292969-.996094 13.367188-2.824219 20.453126 3.496094-2.289063 7-4.222657 10.414063-5.738282 10.230469-4.554687 19.582031-5.300781 27.808593-2.226562 4.269532 1.597656 7.472657 5.035156 8.792969 9.421875 1.335938 4.441406.539063 9.136719-2.183593 12.886719-1.417969 1.945312-1.675782 4.421874-.699219 6.621093.976562 2.199219 2.992187 3.660157 5.386719 3.914063 4.605468.484375 8.628906 3.039062 11.039062 7.003906 2.375 3.917969 2.78125 8.597656 1.109375 12.839844-3.214844 8.167968-10.035156 14.617187-20.261719 19.167968-4.65625 2.070313-9.992187 3.75-15.726562 4.960938 4.261718 4.222656 7.914062 8.636719 10.75 13.011719 6.085937 9.398437 8.28125 18.523437 6.523437 27.125-.917969 4.464843-3.808593 8.164062-7.9375 10.152343-4.179687 2.011719-8.945312 1.953126-13.070312-.152343-2.140625-1.097657-4.628907-.96875-6.652344.339843-2.019531 1.308594-3.148437 3.527344-3.027344 5.929688.238281 4.625-1.65625 9-5.199219 11.992188-2.671874 2.25-5.957031 3.441406-9.339843 3.441406zm-33.011719-51.492188c1.882812 0 3.511719 1.3125 3.910156 3.152344 2.132813 9.851562 5.980469 19.550781 10.550782 26.605469 4.910156 7.574219 10.667968 12.140625 17.117187 13.578125 1.984375.4375 4.03125-.070313 5.609375-1.398438 1.617188-1.367187 2.484375-3.363281 2.371094-5.472656-.269532-5.292969 2.222656-10.171875 6.667968-13.054688 4.449219-2.878906 9.921876-3.160156 14.640626-.75 1.878906.960938 4.054687.984376 5.960937.066407 1.859375-.894531 3.160156-2.550781 3.570313-4.546875 1.324218-6.46875-.492188-13.59375-5.402344-21.167969-3.648438-5.632813-9.109375-11.628906-15.375-16.882813-1.222656-1.023437-1.71875-2.667968-1.269532-4.195312.449219-1.527344 1.761719-2.640625 3.339844-2.839844 7.988282-1 15.710938-3.027344 21.746094-5.710937 8.246094-3.667969 13.652344-8.648438 16.074219-14.792969.746093-1.898438.558593-3.996094-.507813-5.757812-1.101562-1.8125-2.9375-2.976563-5.039062-3.195313-5.269532-.554687-9.699219-3.777344-11.855469-8.621094-2.152344-4.839843-1.582031-10.289062 1.535156-14.578125 1.242188-1.707031 1.605469-3.851562.996094-5.878906-.59375-1.976562-2.03125-3.515625-3.9375-4.230469-6.1875-2.316406-13.503906-1.628906-21.75 2.039063-6.046875 2.691406-12.734375 7.078125-18.832031 12.355468-1.402344 1.207032-3.441406 1.304688-4.945313.230469-1.5-1.074219-2.074219-3.039062-1.382812-4.75 4.011719-9.953125 6.316406-20.835937 6.316406-29.855469 0-9.023437-2.347656-15.992187-6.980469-20.699218-1.429687-1.457032-3.425781-2.140625-5.46875-1.878906-2.101562.269531-3.910156 1.472656-4.964844 3.300781-2.652343 4.589843-7.398437 7.332031-12.695312 7.332031s-10.042969-2.742188-12.695312-7.332031c-1.054688-1.828125-2.867188-3.03125-4.964844-3.300781-2.046875-.261719-4.042969.425781-5.46875 1.878906-4.628906 4.707031-6.980469 11.675781-6.980469 20.699218 0 9.019532 2.304687 19.902344 6.316406 29.855469.691407 1.714844.117188 3.675781-1.382812 4.75-1.503907 1.074219-3.546875.976563-4.945313-.230469-6.097656-5.277343-12.785156-9.664062-18.828125-12.355468-8.246093-3.667969-15.5625-4.355469-21.75-2.039063-1.910156.714844-3.34375 2.253907-3.9375 4.230469-.609375 2.027344-.25 4.171875.992188 5.878906 3.117187 4.289063 3.691406 9.738282 1.535156 14.578125-2.152344 4.839844-6.585937 8.0625-11.855469 8.621094-2.101562.21875-3.933594 1.382813-5.035156 3.195313-1.070312 1.761718-1.253906 3.863281-.507812 5.757812 2.417968 6.148438 7.828124 11.125 16.074218 14.796875 6.035156 2.683594 13.753906 4.710937 21.746094 5.710937 1.578125.199219 2.890625 1.3125 3.339844 2.835938.449218 1.527344-.046875 3.175781-1.269532 4.199219-6.265624 5.253906-11.726562 11.25-15.375 16.882812-4.910156 7.574219-6.726562 14.695313-5.402343 21.167969.410156 1.996094 1.707031 3.652344 3.570312 4.546875 1.90625.917969 4.082031.894531 5.960938-.066406 4.71875-2.414063 10.191406-2.128907 14.640625.75 4.445312 2.882812 6.9375 7.761719 6.667968 13.054687-.109374 2.109375.753907 4.105469 2.371094 5.472656 1.578125 1.332032 3.621094 1.839844 5.613282 1.398438 6.445312-1.4375 12.203124-6.003906 17.113281-13.578125 4.570312-7.054687 8.417969-16.753906 10.550781-26.605469.394531-1.84375 2.023438-3.15625 3.90625-3.15625zm0 0" fill="#690589"/><path d="m274.09375 98.996094c0 12.199218-9.894531 22.089844-22.09375 22.089844s-22.09375-9.890626-22.09375-22.089844c0-12.203125 9.894531-22.09375 22.09375-22.09375s22.09375 9.890625 22.09375 22.09375zm0 0" fill="#f4efed"/><path d="m252 125.085938c-14.386719 0-26.09375-11.707032-26.09375-26.09375 0-14.386719 11.707031-26.089844 26.09375-26.089844s26.09375 11.703125 26.09375 26.089844c0 14.386718-11.707031 26.09375-26.09375 26.09375zm0-44.183594c-9.976562 0-18.09375 8.113281-18.09375 18.089844 0 9.976562 8.117188 18.09375 18.09375 18.09375s18.09375-8.117188 18.09375-18.09375c0-9.976563-8.117188-18.089844-18.09375-18.089844zm0 0" fill="#690589"/><path d="m422.113281 438.542969c-18.160156-86.3125-67.453125-162.921875-138.476562-215.21875-18.816407-13.855469-44.457031-13.855469-63.277344 0-71.023437 52.296875-120.316406 128.90625-138.476563 215.21875 0 22.894531 18.730469 41.625 41.625 41.625h256.984376c22.890624 0 41.621093-18.730469 41.621093-41.625zm0 0" fill="#7bac51"/><path d="m283.636719 223.324219c-12.242188-9.015625-27.371094-12.125-41.636719-9.40625 7.65625 1.457031 15.066406 4.566406 21.636719 9.40625 71.023437 52.296875 120.316406 128.90625 138.480469 215.21875 0 22.894531-18.730469 41.625-41.625 41.625h20c22.894531 0 41.625-18.730469 41.625-41.625-18.164063-86.3125-67.457032-162.921875-138.480469-215.21875zm0 0" fill="#5d8e33"/><path d="m220.363281 223.324219c12.242188-9.015625 27.371094-12.125 41.636719-9.40625-7.65625 1.457031-15.066406 4.566406-21.636719 9.40625-71.023437 52.296875-120.316406 128.90625-138.480469 215.21875 0 22.894531 18.730469 41.625 41.625 41.625h-20c-22.894531 0-41.625-18.730469-41.625-41.625 18.164063-86.3125 67.457032-162.921875 138.480469-215.21875zm0 0" fill="#99ca6f"/><g fill="#690589"><path d="m380.492188 484.167969h-256.984376c-25.15625 0-45.625-20.464844-45.625-45.625 0-.273438.027344-.550781.085938-.824219 18.390625-87.382812 68.117188-164.667969 140.019531-217.617188 20.34375-14.980468 47.675781-14.980468 68.023438 0 71.902343 52.949219 121.628906 130.234376 140.019531 217.617188.058594.273438.085938.546875.085938.824219 0 25.160156-20.46875 45.625-45.625 45.625zm-294.605469-45.214844c.21875 20.558594 17.011719 37.214844 37.621093 37.214844h256.980469c20.613281 0 37.40625-16.65625 37.625-37.214844-18.054687-85.285156-66.644531-160.710937-136.847656-212.40625-17.503906-12.890625-41.03125-12.890625-58.535156 0-70.203125 51.695313-118.789063 127.121094-136.84375 212.40625zm0 0"/><path d="m252 484.167969c-2.207031 0-4-1.792969-4-4v-206.472657c0-2.207031 1.792969-4 4-4s4 1.792969 4 4v206.472657c0 2.207031-1.792969 4-4 4zm0 0"/><path d="m251.996094 361.695312c-.671875 0-1.351563-.167968-1.972656-.523437l-72.667969-41.335937c-1.917969-1.089844-2.589844-3.535157-1.5-5.453126 1.089843-1.921874 3.53125-2.59375 5.453125-1.5l72.667968 41.332032c1.917969 1.09375 2.589844 3.535156 1.5 5.457031-.738281 1.292969-2.089843 2.023437-3.480468 2.023437zm0 0"/><path d="m251.996094 442.578125c-.570313 0-1.152344-.125-1.707032-.386719l-106-50.214844c-1.996093-.945312-2.847656-3.332031-1.902343-5.328124.949219-1.996094 3.328125-2.847657 5.328125-1.902344l106 50.214844c1.996094.949218 2.847656 3.332031 1.902344 5.328124-.6875 1.441407-2.121094 2.289063-3.621094 2.289063zm0 0"/><path d="m252.003906 361.695312c-1.390625 0-2.742187-.730468-3.480468-2.023437-1.089844-1.921875-.417969-4.363281 1.5-5.457031l72.667968-41.332032c1.917969-1.09375 4.359375-.421874 5.453125 1.5 1.089844 1.917969.417969 4.363282-1.5 5.453126l-72.667969 41.335937c-.621093.355469-1.300781.523437-1.972656.523437zm0 0"/><path d="m252.003906 442.578125c-1.5 0-2.9375-.84375-3.621094-2.289063-.945312-1.996093-.09375-4.378906 1.902344-5.328124l106-50.214844c2-.945313 4.378906-.09375 5.328125 1.902344.945313 1.996093.09375 4.382812-1.902343 5.328124l-106 50.214844c-.550782.261719-1.136719.386719-1.707032.386719zm0 0"/></g></svg>